<svg width="46" height="46" viewBox="0 0 46 46" fill="none" xmlns="http://www.w3.org/2000/svg">
<path d="M9.39193 38.981C9.96945 37.0589 11.1512 35.3741 12.7618 34.1766C14.3725 32.9791 16.3262 32.3327 18.3333 32.3333H27.6666C29.6762 32.3326 31.6324 32.9806 33.2442 34.1808C34.855 35.3803 36.0359 37.0674 36.6115 38.9915L36.6126 38.995" fill="#4388AF"/>
<path d="M16 18.3333C16 20.1898 16.7375 21.9703 18.0503 23.2831C19.363 24.5958 21.1435 25.3333 23 25.3333C24.8565 25.3333 26.637 24.5958 27.9497 23.2831C29.2625 21.9703 30 20.1898 30 18.3333C30 16.4768 29.2625 14.6963 27.9497 13.3836C26.637 12.0708 24.8565 11.3333 23 11.3333C21.1435 11.3333 19.363 12.0708 18.0503 13.3836C16.7375 14.6963 16 16.4768 16 18.3333Z" fill="#4388AF"/>
<path fill-rule="evenodd" clip-rule="evenodd" d="M16 18.3333C16 20.1898 16.7375 21.9703 18.0503 23.2831C19.363 24.5958 21.1435 25.3333 23 25.3333C24.8565 25.3333 26.637 24.5958 27.9497 23.2831C29.2625 21.9703 30 20.1898 30 18.3333C30 16.4768 29.2625 14.6963 27.9497 13.3836C26.637 12.0708 24.8565 11.3333 23 11.3333C21.1435 11.3333 19.363 12.0708 18.0503 13.3836C16.7375 14.6963 16 16.4768 16 18.3333Z" fill="#4388AF"/>
<path d="M14.9636 42.4015C17.5115 43.4568 20.2422 44 23 44L31.0364 42.4015C33.0645 41.5614 34.9451 40.4099 36.6115 38.9915C36.0359 37.0674 34.855 35.3803 33.2442 34.1808C31.6324 32.9806 29.6762 32.3326 27.6666 32.3333H18.3333C16.3262 32.3327 14.3725 32.9791 12.7618 34.1766C11.1512 35.3741 9.96945 37.0589 9.39193 38.981L14.9636 42.4015Z" fill="#4388AF"/>
<path d="M14.9636 42.4015C12.4158 41.3461 10.1008 39.7993 8.15076 37.8492C6.20073 35.8992 4.65388 33.5842 3.59853 31.0364C2.54318 28.4885 2 25.7578 2 23C2 20.2422 2.54318 17.5115 3.59853 14.9636C4.65388 12.4158 6.20073 10.1008 8.15076 8.15076C10.1008 6.20073 12.4158 4.65388 14.9636 3.59853C17.5115 2.54318 20.2422 2 23 2C25.7578 2 28.4885 2.54318 31.0364 3.59853C33.5842 4.65388 35.8992 6.20073 37.8492 8.15076C39.7993 10.1008 41.3461 12.4158 42.4015 14.9636C43.4568 17.5115 44 20.2422 44 23C44 25.7578 43.4568 28.4885 42.4015 31.0364C41.3461 33.5842 39.7993 35.8992 37.8492 37.8492C37.4531 38.2453 37.042 38.6248 36.6169 38.9869M14.9636 42.4015C17.5115 43.4568 20.2422 44 23 44M14.9636 42.4015L9.39193 38.981C9.96945 37.0589 11.1512 35.3741 12.7618 34.1766C14.3725 32.9791 16.3262 32.3327 18.3333 32.3333H27.6666C29.6762 32.3326 31.6324 32.9806 33.2442 34.1808C34.855 35.3803 36.0359 37.0674 36.6115 38.9915M23 44C25.7578 44 28.4885 43.4568 31.0364 42.4015M23 44L31.0364 42.4015M31.0364 42.4015C33.0645 41.5614 34.9451 40.4099 36.6115 38.9915M36.6126 38.995L36.6115 38.9915M36.6115 38.9915C36.6133 38.9899 36.6151 38.9884 36.6169 38.9869M36.6115 38.9915L36.6169 38.9869M16 18.3333C16 20.1898 16.7375 21.9703 18.0503 23.2831C19.363 24.5958 21.1435 25.3333 23 25.3333C24.8565 25.3333 26.637 24.5958 27.9497 23.2831C29.2625 21.9703 30 20.1898 30 18.3333C30 16.4768 29.2625 14.6963 27.9497 13.3836C26.637 12.0708 24.8565 11.3333 23 11.3333C21.1435 11.3333 19.363 12.0708 18.0503 13.3836C16.7375 14.6963 16 16.4768 16 18.3333Z" stroke="#4388AF" stroke-width="3" stroke-linecap="round" stroke-linejoin="round"/>
</svg>
