<svg width="18" height="18" viewBox="0 0 18 18" fill="none" xmlns="http://www.w3.org/2000/svg">
<path d="M2.33862 6.1212C2.33862 5.14481 2.33862 4.65661 2.59879 4.37187C2.69116 4.27078 2.80343 4.18986 2.92855 4.1342C3.28095 3.97743 3.74409 4.13181 4.67038 4.44057C5.37756 4.6763 5.73115 4.79416 6.08844 4.78196C6.21966 4.77748 6.35011 4.76001 6.47789 4.7298C6.8258 4.64756 7.13592 4.44082 7.75615 4.02733L8.67214 3.41667C9.46664 2.88701 9.86389 2.62217 10.3199 2.56111C10.7759 2.50004 11.2288 2.65102 12.1347 2.95297L12.9065 3.21024C13.5625 3.42891 13.8905 3.53824 14.0781 3.79854C14.2657 4.05884 14.2657 4.40458 14.2657 5.09608V10.4821C14.2657 11.4585 14.2657 11.9467 14.0056 12.2314C13.9132 12.3325 13.8009 12.4134 13.6758 12.4691C13.3234 12.6258 12.8603 12.4715 11.934 12.1627C11.2268 11.927 10.8732 11.8091 10.5159 11.8213C10.3847 11.8258 10.2542 11.8433 10.1265 11.8735C9.77854 11.9557 9.46842 12.1624 8.84819 12.5759L7.9322 13.1866C7.13771 13.7163 6.74046 13.9811 6.28446 14.0422C5.82845 14.1032 5.37552 13.9522 4.46965 13.6503L3.69786 13.393C3.04185 13.1744 2.71385 13.065 2.52623 12.8047C2.33862 12.5444 2.33862 12.1987 2.33862 11.5072V6.1212Z" stroke="#175873"/>
<path d="M6.31348 4.74915V13.9339" stroke="#175873"/>
<path d="M10.2898 2.33813V11.6148" stroke="#175873"/>
<path fill-rule="evenodd" clip-rule="evenodd" d="M15.9022 10.9199C15.9022 13.0552 12.6866 15.9022 12.6866 15.9022C12.6866 15.9022 9.47095 13.0552 9.47095 10.9199C9.47095 9.15098 10.9106 7.71698 12.6866 7.71698C14.4625 7.71698 15.9022 9.15098 15.9022 10.9199ZM12.6867 11.8097C13.254 11.8097 13.7139 11.3516 13.7139 10.7865C13.7139 10.2214 13.254 9.76336 12.6867 9.76336C12.1194 9.76336 11.6595 10.2214 11.6595 10.7865C11.6595 11.3516 12.1194 11.8097 12.6867 11.8097Z" fill="#175873" stroke="white"/>
</svg>
