<svg width="40" height="40" viewBox="0 0 40 40" fill="none" xmlns="http://www.w3.org/2000/svg">
<rect x="0.5" y="0.5" width="39" height="39" rx="19.5" fill="white"/>
<rect x="0.5" y="0.5" width="39" height="39" rx="19.5" stroke="#F2F2F2"/>
<g clip-path="url(#clip0_3422_26667)">
<path d="M20.0008 23.1998C21.7681 23.1998 23.2008 21.7671 23.2008 19.9998C23.2008 18.2325 21.7681 16.7998 20.0008 16.7998C18.2335 16.7998 16.8008 18.2325 16.8008 19.9998C16.8008 21.7671 18.2335 23.1998 20.0008 23.1998Z" fill="#5E718D"/>
<path d="M17 10L15.17 12H12C10.9 12 10 12.9 10 14V26C10 27.1 10.9 28 12 28H28C29.1 28 30 27.1 30 26V14C30 12.9 29.1 12 28 12H24.83L23 10H17ZM20 25C17.24 25 15 22.76 15 20C15 17.24 17.24 15 20 15C22.76 15 25 17.24 25 20C25 22.76 22.76 25 20 25Z" fill="#5E718D"/>
</g>
<defs>
<clipPath id="clip0_3422_26667">
<rect width="24" height="24" fill="white" transform="translate(8 8)"/>
</clipPath>
</defs>
</svg>
