<svg width="16" height="16" viewBox="0 0 16 16" fill="none" xmlns="http://www.w3.org/2000/svg">
<path d="M10.2419 10.0744C10.5039 10.1618 10.787 10.0202 10.8743 9.75821C10.9617 9.49624 10.8201 9.21308 10.5581 9.12575L10.2419 10.0744ZM8 8.8001H7.5C7.5 9.01531 7.63771 9.20638 7.84188 9.27444L8 8.8001ZM8.5 5.45494C8.5 5.17879 8.27614 4.95494 8 4.95494C7.72385 4.95494 7.5 5.17879 7.5 5.45494H8.5ZM10.5581 9.12575L8.15811 8.32575L7.84188 9.27444L10.2419 10.0744L10.5581 9.12575ZM8.5 8.8001V5.45494H7.5V8.8001H8.5ZM13.9 8.0001C13.9 11.2586 11.2585 13.9001 8 13.9001V14.9001C11.8108 14.9001 14.9 11.8109 14.9 8.0001H13.9ZM8 13.9001C4.74152 13.9001 2.1 11.2586 2.1 8.0001H1.1C1.1 11.8109 4.18923 14.9001 8 14.9001V13.9001ZM2.1 8.0001C2.1 4.74162 4.74152 2.1001 8 2.1001V1.1001C4.18923 1.1001 1.1 4.18933 1.1 8.0001H2.1ZM8 2.1001C11.2585 2.1001 13.9 4.74162 13.9 8.0001H14.9C14.9 4.18933 11.8108 1.1001 8 1.1001V2.1001Z" fill="#777777"/>
</svg>
