<svg width="17" height="17" viewBox="0 0 17 17" fill="none" xmlns="http://www.w3.org/2000/svg">
<path fill-rule="evenodd" clip-rule="evenodd" d="M15.0166 8.48311C15.0166 8.48311 13.4038 13.3397 8.21663 13.2549C3.02945 13.17 1.41663 8.48311 1.41663 8.48311C1.41663 8.48311 2.96406 3.54169 8.21663 3.54169C13.4692 3.54169 15.0166 8.48311 15.0166 8.48311ZM8.21663 10.0737C9.15551 10.0737 9.91663 9.33308 9.91663 8.41949C9.91663 7.50589 9.15551 6.76528 8.21663 6.76528C7.27774 6.76528 6.51663 7.50589 6.51663 8.41949C6.51663 9.33308 7.27774 10.0737 8.21663 10.0737Z" fill="#747577"/>
<path d="M9.91663 8.41949C9.91663 9.33308 9.15551 10.0737 8.21663 10.0737C7.27774 10.0737 6.51663 9.33308 6.51663 8.41949C6.51663 7.50589 7.27774 6.76528 8.21663 6.76528C9.15551 6.76528 9.91663 7.50589 9.91663 8.41949Z" fill="#747577"/>
<path fill-rule="evenodd" clip-rule="evenodd" d="M15.0166 8.48311C15.0166 8.48311 13.4038 13.3397 8.21663 13.2549C3.02945 13.17 1.41663 8.48311 1.41663 8.48311C1.41663 8.48311 2.96406 3.54169 8.21663 3.54169C13.4692 3.54169 15.0166 8.48311 15.0166 8.48311ZM8.21663 10.0737C9.15551 10.0737 9.91663 9.33308 9.91663 8.41949C9.91663 7.50589 9.15551 6.76528 8.21663 6.76528C7.27774 6.76528 6.51663 7.50589 6.51663 8.41949C6.51663 9.33308 7.27774 10.0737 8.21663 10.0737Z" stroke="#747577"/>
<path d="M9.91663 8.41949C9.91663 9.33308 9.15551 10.0737 8.21663 10.0737C7.27774 10.0737 6.51663 9.33308 6.51663 8.41949C6.51663 7.50589 7.27774 6.76528 8.21663 6.76528C9.15551 6.76528 9.91663 7.50589 9.91663 8.41949Z" stroke="#747577"/>
<circle cx="8.5" cy="8.5" r="2.125" fill="#747577" stroke="white"/>
</svg>
