<svg width="14" height="12" viewBox="0 0 14 12" fill="none" xmlns="http://www.w3.org/2000/svg">
<path d="M1 2.66659C1 2.31296 1.14048 1.97382 1.39052 1.72378C1.64057 1.47373 1.97971 1.33325 2.33333 1.33325H11.6667C12.0203 1.33325 12.3594 1.47373 12.6095 1.72378C12.8595 1.97382 13 2.31296 13 2.66659M1 2.66659V9.33325C1 9.68687 1.14048 10.026 1.39052 10.2761C1.64057 10.5261 1.97971 10.6666 2.33333 10.6666H11.6667C12.0203 10.6666 12.3594 10.5261 12.6095 10.2761C12.8595 10.026 13 9.68687 13 9.33325V2.66659M1 2.66659L7 6.66659L13 2.66659" stroke="#1C1C1C" stroke-linecap="round" stroke-linejoin="round"/>
</svg>
