<svg width="130" height="40" viewBox="0 0 130 40" fill="none" xmlns="http://www.w3.org/2000/svg">
<path d="M20.8469 16.5433H16.8626C16.7489 15.8899 16.5394 15.3111 16.234 14.8068C15.9286 14.2955 15.5487 13.8622 15.0941 13.5071C14.6396 13.152 14.1211 12.8857 13.5387 12.7081C12.9634 12.5234 12.342 12.4311 11.6744 12.4311C10.4883 12.4311 9.43714 12.7294 8.52095 13.326C7.60476 13.9155 6.88743 14.782 6.36896 15.9254C5.8505 17.0618 5.59126 18.4503 5.59126 20.0909C5.59126 21.7599 5.8505 23.1662 6.36896 24.3097C6.89453 25.446 7.61186 26.3054 8.52095 26.8878C9.43714 27.4631 10.4847 27.7507 11.6637 27.7507C12.3171 27.7507 12.9279 27.6655 13.4961 27.495C14.0714 27.3175 14.5863 27.0582 15.0408 26.7173C15.5025 26.3764 15.8896 25.9574 16.2021 25.4602C16.5217 24.9631 16.7418 24.3949 16.8626 23.7557L20.8469 23.777C20.6978 24.8139 20.3746 25.7869 19.8775 26.696C19.3874 27.6051 18.7447 28.4077 17.9492 29.1037C17.1538 29.7926 16.2234 30.3324 15.158 30.723C14.0927 31.1065 12.9102 31.2983 11.6104 31.2983C9.69283 31.2983 7.98118 30.8544 6.4755 29.9666C4.96982 29.0788 3.78374 27.7969 2.91726 26.1207C2.05078 24.4446 1.61754 22.4347 1.61754 20.0909C1.61754 17.7401 2.05433 15.7301 2.92791 14.0611C3.80149 12.3849 4.99112 11.103 6.4968 10.2152C8.00249 9.32741 9.70703 8.88352 11.6104 8.88352C12.8249 8.88352 13.9542 9.05398 14.9982 9.39489C16.0423 9.7358 16.9727 10.2365 17.7894 10.897C18.6062 11.5504 19.2773 12.353 19.8029 13.3047C20.3356 14.2493 20.6836 15.3288 20.8469 16.5433ZM29.0048 31.3303C27.9679 31.3303 27.0339 31.1456 26.2029 30.7763C25.3791 30.3999 24.7257 29.8459 24.2427 29.1143C23.7669 28.3828 23.5289 27.4808 23.5289 26.4084C23.5289 25.4851 23.6994 24.7216 24.0403 24.1179C24.3812 23.5142 24.8464 23.0312 25.4359 22.669C26.0254 22.3068 26.6895 22.0334 27.4281 21.8487C28.1738 21.657 28.9444 21.5185 29.7399 21.4332C30.6987 21.3338 31.4764 21.245 32.073 21.1669C32.6696 21.0817 33.1028 20.9538 33.3727 20.7834C33.6497 20.6058 33.7882 20.3324 33.7882 19.9631V19.8991C33.7882 19.0966 33.5502 18.4751 33.0744 18.0348C32.5985 17.5945 31.9132 17.3743 31.0183 17.3743C30.0737 17.3743 29.3244 17.5803 28.7704 17.9922C28.2235 18.4041 27.8542 18.8906 27.6625 19.4517L24.0616 18.9403C24.3457 17.946 24.8145 17.1151 25.4679 16.4474C26.1213 15.7727 26.9203 15.2685 27.8649 14.9347C28.8095 14.5938 29.8535 14.4233 30.997 14.4233C31.7853 14.4233 32.5701 14.5156 33.3514 14.7003C34.1326 14.8849 34.8464 15.1903 35.4927 15.6165C36.139 16.0355 36.6575 16.6072 37.0481 17.3317C37.4458 18.0561 37.6447 18.9616 37.6447 20.0483V31H33.9373V28.7521H33.8095C33.5751 29.2067 33.2449 29.6328 32.8187 30.0305C32.3997 30.4212 31.8706 30.7372 31.2314 30.9787C30.5993 31.2131 29.8571 31.3303 29.0048 31.3303ZM30.0062 28.4964C30.7804 28.4964 31.4515 28.3437 32.0197 28.0384C32.5879 27.7259 33.0247 27.3139 33.3301 26.8026C33.6426 26.2912 33.7988 25.7337 33.7988 25.13V23.2017C33.6781 23.3011 33.4721 23.3935 33.1809 23.4787C32.8968 23.5639 32.5772 23.6385 32.2221 23.7024C31.867 23.7663 31.5154 23.8232 31.1674 23.8729C30.8194 23.9226 30.5176 23.9652 30.2619 24.0007C29.6866 24.0788 29.1717 24.2067 28.7172 24.3842C28.2626 24.5618 27.9039 24.8104 27.6412 25.13C27.3784 25.4425 27.247 25.8473 27.247 26.3445C27.247 27.0547 27.5062 27.5909 28.0247 27.9531C28.5431 28.3153 29.2037 28.4964 30.0062 28.4964ZM41.5225 31V14.6364H45.2619V17.3636H45.4324C45.7306 16.419 46.242 15.6911 46.9664 15.1797C47.698 14.6612 48.5325 14.402 49.47 14.402C49.6831 14.402 49.921 14.4126 50.1838 14.4339C50.4537 14.4482 50.6774 14.473 50.8549 14.5085V18.0561C50.6916 17.9993 50.4324 17.9496 50.0772 17.907C49.7292 17.8572 49.3919 17.8324 49.0652 17.8324C48.362 17.8324 47.7299 17.9851 47.1689 18.2905C46.6149 18.5888 46.1781 19.0043 45.8585 19.5369C45.5389 20.0696 45.3791 20.6839 45.3791 21.38V31H41.5225ZM59.9876 31.3196C58.3469 31.3196 56.93 30.9787 55.7369 30.2969C54.5508 29.608 53.6381 28.6349 52.9989 27.3778C52.3597 26.1136 52.0401 24.6257 52.0401 22.9141C52.0401 21.2308 52.3597 19.7536 52.9989 18.4822C53.6452 17.2038 54.5472 16.2095 55.7049 15.4993C56.8626 14.782 58.2227 14.4233 59.7852 14.4233C60.7937 14.4233 61.7454 14.5866 62.6403 14.9134C63.5423 15.233 64.3377 15.7301 65.0266 16.4048C65.7227 17.0795 66.2695 17.9389 66.6673 18.983C67.065 20.0199 67.2639 21.2557 67.2639 22.6903V23.8729H53.8512V21.2734H63.5671C63.56 20.5348 63.4002 19.8778 63.0877 19.3026C62.7752 18.7202 62.3384 18.2621 61.7773 17.9283C61.2234 17.5945 60.5771 17.4276 59.8384 17.4276C59.0501 17.4276 58.3576 17.6193 57.761 18.0028C57.1644 18.3793 56.6992 18.8764 56.3654 19.4943C56.0387 20.1051 55.8718 20.7763 55.8647 21.5078V23.777C55.8647 24.7287 56.0387 25.5455 56.3867 26.2273C56.7347 26.902 57.2212 27.4205 57.8462 27.7827C58.4712 28.1378 59.2028 28.3153 60.0408 28.3153C60.6019 28.3153 61.1097 28.2372 61.5643 28.081C62.0188 27.9176 62.413 27.6797 62.7468 27.3672C63.0806 27.0547 63.3327 26.6676 63.5032 26.206L67.104 26.6108C66.8768 27.5625 66.4435 28.3935 65.8043 29.1037C65.1722 29.8068 64.3626 30.3537 63.3754 30.7443C62.3881 31.1278 61.2589 31.3196 59.9876 31.3196ZM70.5265 14.6364H74.383V31.9375C74.383 33.1165 74.1593 34.0895 73.7118 34.8565C73.2644 35.6236 72.6181 36.1953 71.7729 36.5717C70.9277 36.9482 69.9015 37.1364 68.6941 37.1364C68.552 37.1364 68.4206 37.1328 68.2999 37.1257C68.1792 37.1257 68.0478 37.1222 67.9057 37.1151V33.9723C68.0123 33.9794 68.1081 33.983 68.1934 33.983C68.2786 33.9901 68.3674 33.9936 68.4597 33.9936C69.1983 33.9936 69.7275 33.8125 70.0471 33.4503C70.3667 33.0952 70.5265 32.5732 70.5265 31.8842V14.6364ZM72.4441 12.3139C71.8262 12.3139 71.2971 12.1115 70.8567 11.7067C70.4235 11.2947 70.2069 10.8011 70.2069 10.2259C70.2069 9.64347 70.4235 9.14986 70.8567 8.74503C71.2971 8.3331 71.8262 8.12713 72.4441 8.12713C73.0549 8.12713 73.5769 8.3331 74.0101 8.74503C74.4505 9.14986 74.6706 9.64347 74.6706 10.2259C74.6706 10.8011 74.4505 11.2947 74.0101 11.7067C73.5769 12.1115 73.0549 12.3139 72.4441 12.3139ZM85.4865 31.3196C83.8885 31.3196 82.5036 30.968 81.3317 30.2649C80.1598 29.5618 79.2507 28.5781 78.6044 27.3139C77.9652 26.0497 77.6456 24.5724 77.6456 22.8821C77.6456 21.1918 77.9652 19.7109 78.6044 18.4396C79.2507 17.1683 80.1598 16.1811 81.3317 15.478C82.5036 14.7749 83.8885 14.4233 85.4865 14.4233C87.0845 14.4233 88.4695 14.7749 89.6413 15.478C90.8132 16.1811 91.7188 17.1683 92.358 18.4396C93.0043 19.7109 93.3274 21.1918 93.3274 22.8821C93.3274 24.5724 93.0043 26.0497 92.358 27.3139C91.7188 28.5781 90.8132 29.5618 89.6413 30.2649C88.4695 30.968 87.0845 31.3196 85.4865 31.3196ZM85.5078 28.2301C86.3743 28.2301 87.0987 27.9922 87.6811 27.5163C88.2635 27.0334 88.6967 26.3871 88.9808 25.5774C89.272 24.7678 89.4176 23.8658 89.4176 22.8714C89.4176 21.87 89.272 20.9645 88.9808 20.1548C88.6967 19.3381 88.2635 18.6882 87.6811 18.2053C87.0987 17.7223 86.3743 17.4808 85.5078 17.4808C84.62 17.4808 83.8814 17.7223 83.2919 18.2053C82.7095 18.6882 82.2727 19.3381 81.9815 20.1548C81.6974 20.9645 81.5554 21.87 81.5554 22.8714C81.5554 23.8658 81.6974 24.7678 81.9815 25.5774C82.2727 26.3871 82.7095 27.0334 83.2919 27.5163C83.8814 27.9922 84.62 28.2301 85.5078 28.2301ZM96.7711 31V9.18182H100.628V17.3423H100.787C100.986 16.9446 101.267 16.522 101.629 16.0746C101.991 15.62 102.481 15.233 103.099 14.9134C103.717 14.5866 104.506 14.4233 105.464 14.4233C106.729 14.4233 107.868 14.7464 108.884 15.3928C109.907 16.032 110.716 16.9801 111.313 18.2372C111.917 19.4872 112.219 21.0213 112.219 22.8395C112.219 24.6364 111.924 26.1634 111.334 27.4205C110.745 28.6776 109.942 29.6364 108.927 30.2969C107.911 30.9574 106.76 31.2876 105.475 31.2876C104.537 31.2876 103.76 31.1314 103.142 30.8189C102.524 30.5064 102.027 30.13 101.65 29.6896C101.281 29.2422 100.993 28.8196 100.787 28.4219H100.564V31H96.7711ZM100.553 22.8182C100.553 23.8764 100.702 24.8033 101.001 25.5987C101.306 26.3942 101.743 27.0156 102.311 27.4631C102.886 27.9034 103.582 28.1236 104.399 28.1236C105.251 28.1236 105.965 27.8963 106.54 27.4418C107.116 26.9801 107.549 26.3516 107.84 25.5561C108.138 24.7536 108.287 23.8409 108.287 22.8182C108.287 21.8026 108.142 20.9006 107.851 20.1122C107.559 19.3239 107.126 18.706 106.551 18.2585C105.976 17.8111 105.258 17.5874 104.399 17.5874C103.575 17.5874 102.876 17.804 102.3 18.2372C101.725 18.6705 101.288 19.2777 100.99 20.0589C100.699 20.8402 100.553 21.7599 100.553 22.8182ZM128.43 18.9616L124.915 19.3452C124.815 18.9901 124.641 18.6562 124.393 18.3438C124.151 18.0312 123.825 17.7791 123.413 17.5874C123.001 17.3956 122.496 17.2997 121.9 17.2997C121.097 17.2997 120.423 17.4737 119.876 17.8217C119.336 18.1697 119.07 18.6207 119.077 19.1747C119.07 19.6506 119.244 20.0376 119.599 20.3359C119.961 20.6342 120.558 20.8793 121.388 21.071L124.18 21.6676C125.728 22.0014 126.879 22.5305 127.631 23.255C128.391 23.9794 128.775 24.9276 128.782 26.0994C128.775 27.1293 128.473 28.0384 127.876 28.8267C127.287 29.608 126.467 30.2187 125.415 30.6591C124.364 31.0994 123.157 31.3196 121.793 31.3196C119.79 31.3196 118.178 30.9006 116.957 30.0625C115.735 29.2173 115.007 28.0419 114.773 26.5362L118.533 26.174C118.704 26.9126 119.066 27.4702 119.62 27.8466C120.174 28.223 120.895 28.4112 121.783 28.4112C122.699 28.4112 123.434 28.223 123.988 27.8466C124.549 27.4702 124.83 27.005 124.83 26.451C124.83 25.9822 124.648 25.5952 124.286 25.2898C123.931 24.9844 123.377 24.75 122.624 24.5866L119.833 24.0007C118.263 23.674 117.102 23.1236 116.349 22.3494C115.597 21.5682 115.224 20.581 115.231 19.3878C115.224 18.3793 115.497 17.5057 116.051 16.767C116.612 16.0213 117.39 15.446 118.384 15.0412C119.386 14.6293 120.54 14.4233 121.847 14.4233C123.764 14.4233 125.273 14.8317 126.374 15.6484C127.482 16.4652 128.168 17.5696 128.43 18.9616Z" fill="#175873"/>
</svg>
