<svg width="24" height="26" viewBox="0 0 24 26" fill="none" xmlns="http://www.w3.org/2000/svg">
<path d="M7.9987 19.6667V21C7.9987 22.0609 8.42012 23.0783 9.17027 23.8284C9.92042 24.5786 10.9378 25 11.9987 25C13.0596 25 14.077 24.5786 14.8271 23.8284C15.5773 23.0783 15.9987 22.0609 15.9987 21V19.6667M9.33203 3.66667C9.33203 2.95942 9.61298 2.28115 10.1131 1.78105C10.6132 1.28095 11.2915 1 11.9987 1C12.7059 1 13.3842 1.28095 13.8843 1.78105C14.3844 2.28115 14.6654 2.95942 14.6654 3.66667C16.1966 4.3907 17.5019 5.51777 18.4414 6.92707C19.381 8.33636 19.9193 9.97476 19.9987 11.6667V15.6667C20.099 16.4956 20.3926 17.2894 20.8558 17.9842C21.319 18.6789 21.9388 19.2552 22.6654 19.6667H1.33203C2.05862 19.2552 2.67844 18.6789 3.14161 17.9842C3.60479 17.2894 3.89836 16.4956 3.9987 15.6667V11.6667C4.07811 9.97476 4.61643 8.33636 5.55596 6.92707C6.4955 5.51777 7.80082 4.3907 9.33203 3.66667Z" stroke="#1C1C1C" stroke-width="1.5" stroke-linecap="round" stroke-linejoin="round"/>
</svg>
