<svg width="24" height="24" viewBox="0 0 24 24" fill="none" xmlns="http://www.w3.org/2000/svg">
<path d="M9.49357 8.46398L12 3.38539L14.5064 8.46398L15.179 8.13206L14.5064 8.46398C14.6977 8.85155 15.0674 9.12017 15.4951 9.18232L21.0997 9.99671L17.0442 13.9498C16.7347 14.2515 16.5935 14.6862 16.6665 15.1121L17.6239 20.694L12.6111 18.0586C12.2285 17.8575 11.7715 17.8575 11.3889 18.0586L6.37608 20.694L7.33345 15.1121C7.40651 14.6862 7.26529 14.2515 6.9558 13.9498L2.9003 9.99671L8.50486 9.18232C8.93256 9.12017 9.30229 8.85155 9.49357 8.46398ZM6.04094 20.8702C6.04106 20.8702 6.04119 20.8701 6.04131 20.87L6.04094 20.8702ZM2.62917 9.73242C2.62924 9.73249 2.62931 9.73256 2.62938 9.73263L2.62917 9.73242L2.49873 9.86623L2.62917 9.73242Z" stroke="#FFB400" stroke-width="1.5" stroke-linejoin="round"/>
</svg>
