<svg width="24" height="24" viewBox="0 0 24 24" fill="none" xmlns="http://www.w3.org/2000/svg">
<g id="Star Filled">
<path id="Icon" d="M9.49358 8.46386L12 3.38527L14.5064 8.46386L15.179 8.13194L14.5064 8.46386C14.6977 8.85142 15.0675 9.12005 15.4952 9.1822L21.0997 9.99659L17.0442 13.9497C16.7347 14.2514 16.5935 14.686 16.6666 15.112L17.6239 20.6939L12.6111 18.0585C12.2285 17.8574 11.7715 17.8574 11.389 18.0585L6.37609 20.6939L7.33346 15.112C7.40652 14.686 7.2653 14.2514 6.95581 13.9497L2.90032 9.99659L8.50487 9.1822C8.93257 9.12005 9.3023 8.85142 9.49358 8.46386ZM6.04095 20.8701C6.04107 20.8701 6.0412 20.87 6.04132 20.8699L6.04095 20.8701ZM2.62918 9.7323C2.62925 9.73237 2.62932 9.73243 2.62939 9.7325L2.62918 9.7323L2.49875 9.86611L2.62918 9.7323Z" stroke="#333230" stroke-width="1.5" stroke-linejoin="round"/>
</g>
</svg>
