<svg width="24" height="24" viewBox="0 0 24 24" fill="none" xmlns="http://www.w3.org/2000/svg">
<g id="Star Filled">
<path id="Icon" d="M9.49364 8.46398L12.0001 3.38539L14.5065 8.46398L15.1791 8.13206L14.5065 8.46398C14.6978 8.85155 15.0675 9.12017 15.4952 9.18232L21.0998 9.99671L17.0443 13.9498C16.7348 14.2515 16.5936 14.6862 16.6666 15.1121L17.624 20.694L12.6111 18.0586C12.2286 17.8575 11.7716 17.8575 11.389 18.0586L6.37615 20.694L7.33352 15.1121C7.40658 14.6862 7.26536 14.2515 6.95587 13.9498L2.90038 9.99671L8.50493 9.18232C8.93263 9.12017 9.30237 8.85155 9.49364 8.46398ZM6.04101 20.8702C6.04113 20.8702 6.04126 20.8701 6.04138 20.87L6.04101 20.8702ZM2.62924 9.73242C2.62931 9.73249 2.62938 9.73256 2.62945 9.73263L2.62924 9.73242L2.49881 9.86623L2.62924 9.73242Z" stroke="#175873" stroke-width="1.5" stroke-linejoin="round"/>
</g>
</svg>
