<svg width="16" height="16" viewBox="0 0 16 16" fill="none" xmlns="http://www.w3.org/2000/svg">
<path d="M11.702 11.1661C10.7643 10.2285 9.49267 9.70182 8.16668 9.70182C6.8407 9.70182 5.56901 10.2285 4.63135 11.1661M12 2.53589C11.0813 2.00548 9.98947 1.86174 8.96478 2.13629C7.94008 2.41085 7.06642 3.0812 6.53597 3.99989L13.464 7.99989C13.9944 7.08117 14.1381 5.98939 13.8636 4.9647C13.589 3.94 12.9187 3.06634 12 2.53589ZM12 2.53589C12.638 2.90389 12.26 4.75286 11.1546 6.6662M12 2.53589C11.362 2.16789 9.94996 3.41953 8.8453 5.33286M10 6L8 9.464M2 12.8337C2.20753 12.7305 2.435 12.6736 2.66667 12.667C2.92633 12.6616 3.18342 12.7194 3.41572 12.8356C3.64802 12.9517 3.84855 13.1227 4 13.3337C4.15145 13.5447 4.35198 13.7156 4.58428 13.8318C4.81658 13.9479 5.07367 14.0058 5.33333 14.0004C5.593 14.0058 5.85008 13.9479 6.08238 13.8318C6.31469 13.7156 6.51522 13.5447 6.66667 13.3337C6.81811 13.1227 7.01865 12.9517 7.25095 12.8356C7.48325 12.7194 7.74034 12.6616 8 12.667C8.25966 12.6616 8.51675 12.7194 8.74905 12.8356C8.98135 12.9517 9.18189 13.1227 9.33333 13.3337C9.48478 13.5447 9.68531 13.7156 9.91762 13.8318C10.1499 13.9479 10.407 14.0058 10.6667 14.0004C10.9263 14.0058 11.1834 13.9479 11.4157 13.8318C11.648 13.7156 11.8486 13.5447 12 13.3337C12.1514 13.1227 12.352 12.9517 12.5843 12.8356C12.8166 12.7194 13.0737 12.6616 13.3333 12.667C13.565 12.6736 13.7925 12.7305 14 12.8337" stroke="#1C1C1C" stroke-linecap="round" stroke-linejoin="round"/>
</svg>
