<svg width="18" height="18" viewBox="0 0 18 18" fill="none" xmlns="http://www.w3.org/2000/svg">
<path d="M8.19917 11.0978C8.06681 11.0978 7.94108 11.0449 7.84843 10.9522L6.24696 9.35078C6.05505 9.15887 6.05505 8.84122 6.24696 8.64931C6.43887 8.4574 6.75652 8.4574 6.94843 8.64931L8.19917 9.90004L11.0448 7.05446C11.2367 6.86254 11.5543 6.86254 11.7462 7.05446C11.9381 7.24637 11.9381 7.56401 11.7462 7.75593L8.5499 10.9522C8.45725 11.0449 8.33152 11.0978 8.19917 11.0978Z" fill="#175873"/>
<path d="M9.00006 16.114C8.58315 16.114 8.16624 15.975 7.84198 15.6971L6.79639 14.7971C6.69051 14.7044 6.4258 14.6118 6.28683 14.6118H5.14859C4.16918 14.6118 3.37507 13.8177 3.37507 12.8383V11.7066C3.37507 11.5677 3.28242 11.3096 3.18977 11.2037L2.29639 10.1515C1.75374 9.50958 1.75374 8.49708 2.29639 7.85516L3.18977 6.80296C3.28242 6.69708 3.37507 6.43899 3.37507 6.30002V5.16178C3.37507 4.18237 4.16918 3.38825 5.14859 3.38825H6.29345C6.43242 3.38825 6.69712 3.28899 6.80301 3.20296L7.84859 2.30296C8.49712 1.74708 9.50962 1.74708 10.1582 2.30296L11.2037 3.20296C11.3096 3.29561 11.5743 3.38825 11.7133 3.38825H12.8383C13.8177 3.38825 14.6118 4.18237 14.6118 5.16178V6.28678C14.6118 6.42575 14.7111 6.69046 14.8037 6.79634L15.7037 7.84193C16.2596 8.49046 16.2596 9.50296 15.7037 10.1515L14.8037 11.1971C14.7111 11.303 14.6118 11.5677 14.6118 11.7066V12.8316C14.6118 13.811 13.8177 14.6052 12.8383 14.6052H11.7133C11.5743 14.6052 11.3096 14.7044 11.2037 14.7905L10.1582 15.6905C9.83389 15.975 9.41698 16.114 9.00006 16.114ZM5.14859 4.3809C4.71845 4.3809 4.36771 4.73164 4.36771 5.16178V6.2934C4.36771 6.67061 4.18904 7.15369 3.94418 7.43825L3.0508 8.49046C2.81918 8.76178 2.81918 9.23163 3.0508 9.50296L3.94418 10.5552C4.18904 10.8463 4.36771 11.3228 4.36771 11.7V12.8316C4.36771 13.2618 4.71845 13.6125 5.14859 13.6125H6.29345C6.67727 13.6125 7.16036 13.7912 7.45154 14.0427L8.49712 14.9427C8.76845 15.1743 9.24492 15.1743 9.51624 14.9427L10.5618 14.0427C10.853 13.7978 11.3361 13.6125 11.7199 13.6125H12.8449C13.2751 13.6125 13.6258 13.2618 13.6258 12.8316V11.7066C13.6258 11.3228 13.8045 10.8397 14.0559 10.5485L14.9559 9.50296C15.1876 9.23163 15.1876 8.75516 14.9559 8.48384L14.0559 7.43825C13.8045 7.14708 13.6258 6.66399 13.6258 6.28016V5.16178C13.6258 4.73164 13.2751 4.3809 12.8449 4.3809H11.7199C11.3361 4.3809 10.853 4.20222 10.5618 3.95075L9.51624 3.05075C9.24492 2.81914 8.76845 2.81914 8.49712 3.05075L7.45154 3.95737C7.16036 4.20222 6.67065 4.3809 6.29345 4.3809H5.14859Z" fill="#175873"/>
</svg>
